<svg xmlns="http://www.w3.org/2000/svg" width="1200" height="400" viewBox="0 0 1200 400"><rect width="100%" height="100%" fill="#27ae60"/><path fill="#ffffff" d="M285.825 184.75h-25.64v14.06h22.67v13.07h-22.67v15.25h25.64v13.56h-42.57v-69.5h42.57zm44.65.1q9.7 0 15.49 6.29t5.79 17.28v32.27h-16.83v-30q0-5.54-2.87-8.61t-7.72-3.07-7.72 3.07-2.87 8.61v30h-16.93v-55.24h16.93v7.32q2.57-3.66 6.93-5.79 4.35-2.13 9.8-2.13m45.93.6 11.98 39.4 11.98-39.4h18.02l-19.6 55.24h-20.89l-19.6-55.24zm50.39 0h16.93v55.24h-16.93zm20-26.93v13.17l-23.86 10V170zm35.64 82.96q-8.12 0-14.6-3.46-6.49-3.47-10.2-9.9-3.71-6.44-3.71-15.05 0-8.52 3.76-15t10.3-9.95q6.53-3.46 14.65-3.46t14.65 3.46q6.54 3.47 10.3 9.95t3.76 15q0 8.51-3.81 15-3.81 6.48-10.4 9.95-6.58 3.46-14.7 3.46m0-14.65q4.85 0 8.27-3.56 3.41-3.57 3.41-10.2t-3.31-10.2q-3.32-3.56-8.17-3.56-4.95 0-8.22 3.51-3.26 3.52-3.26 10.25 0 6.63 3.21 10.2 3.22 3.56 8.07 3.56m123.75-33.66h-18.71q-1.88-3.46-5.4-5.3-3.51-1.83-8.26-1.83-8.22 0-13.17 5.4-4.95 5.39-4.95 14.4 0 9.6 5.2 15t14.3 5.4q6.24 0 10.55-3.17 4.3-3.17 6.28-9.11h-21.48v-12.47h36.83v15.74q-1.88 6.33-6.39 11.78-4.5 5.44-11.43 8.81-6.93 3.36-15.64 3.36-10.3 0-18.37-4.5t-12.57-12.52-4.5-18.32q0-10.29 4.5-18.36t12.52-12.58q8.02-4.5 18.32-4.5 12.47 0 21.04 6.04 8.56 6.04 11.33 16.73m27.52 1.48q2.97-4.55 7.43-7.17 4.45-2.63 9.9-2.63v17.92h-4.65q-6.34 0-9.51 2.73-3.17 2.72-3.17 9.55v25.64h-16.93v-55.24h16.93zm22.08 18.32q0-8.51 3.22-14.95 3.22-6.43 8.76-9.9 5.54-3.46 12.37-3.46 5.85 0 10.25 2.37 4.41 2.38 6.78 6.24v-7.82h16.93v55.24h-16.93v-7.82q-2.47 3.86-6.88 6.24-4.4 2.37-10.24 2.37-6.74 0-12.28-3.51-5.54-3.52-8.76-10-3.22-6.49-3.22-15m41.38.1q0-6.34-3.51-10-3.52-3.66-8.57-3.66-5.04 0-8.56 3.61-3.51 3.61-3.51 9.95t3.51 10.05q3.52 3.71 8.56 3.71 5.05 0 8.57-3.66 3.51-3.67 3.51-10m53.96 13.26h6.04v14.36h-8.62q-9.2 0-14.35-4.5-5.15-4.51-5.15-14.71v-21.97h-6.73v-14.06h6.73v-13.47h16.93v13.47h11.09v14.06h-11.09v22.17q0 2.48 1.19 3.57 1.19 1.08 3.96 1.08m53.06-40.88h16.93v55.24h-16.93v-7.52q-2.57 3.66-6.98 5.89-4.4 2.22-9.75 2.22-6.34 0-11.19-2.82t-7.52-8.17q-2.67-5.34-2.67-12.57v-32.27h16.83v29.99q0 5.55 2.87 8.62t7.72 3.07q4.95 0 7.82-3.07t2.87-8.62zm37.62-5.74q-4.45 0-7.28-2.63-2.82-2.62-2.82-6.48 0-3.96 2.82-6.59 2.83-2.62 7.28-2.62 4.36 0 7.18 2.62 2.82 2.63 2.82 6.59 0 3.86-2.82 6.48-2.82 2.63-7.18 2.63m-8.51 5.74h16.93v55.24h-16.93zm53.95 40.88h6.04v14.36h-8.61q-9.21 0-14.36-4.5-5.14-4.51-5.14-14.71v-21.97h-6.74v-14.06h6.74v-13.47h16.92v13.47h11.09v14.06h-11.09v22.17q0 2.48 1.19 3.57 1.19 1.08 3.96 1.08m40.59 15.15q-8.12 0-14.6-3.46-6.48-3.47-10.2-9.9-3.71-6.44-3.71-15.05 0-8.52 3.76-15t10.3-9.95q6.53-3.46 14.65-3.46t14.65 3.46q6.54 3.47 10.3 9.95t3.76 15q0 8.51-3.81 15-3.81 6.48-10.4 9.95-6.58 3.46-14.7 3.46m0-14.65q4.85 0 8.27-3.56 3.41-3.57 3.41-10.2t-3.31-10.2q-3.32-3.56-8.17-3.56-4.95 0-8.22 3.51-3.26 3.52-3.26 10.25 0 6.63 3.21 10.2 3.22 3.56 8.07 3.56"/></svg>