<svg xmlns="http://www.w3.org/2000/svg" width="1200" height="400" viewBox="0 0 1200 400"><rect width="100%" height="100%" fill="#2980b9"/><path fill="#ffffff" d="M243.505 189.165q0-8.73 3.78-15.58t10.54-10.67 15.33-3.82q10.5 0 17.98 5.54 7.47 5.55 9.99 15.12h-15.79q-1.76-3.69-5-5.62-3.23-1.94-7.35-1.94-6.63 0-10.75 4.62t-4.12 12.35 4.12 12.35 10.75 4.62q4.12 0 7.35-1.93 3.24-1.93 5-5.63h15.79q-2.52 9.58-9.99 15.08-7.48 5.5-17.98 5.5-8.57 0-15.33-3.82t-10.54-10.63q-3.78-6.8-3.78-15.54m87.78 30.24q-6.89 0-12.39-2.94t-8.65-8.4-3.15-12.77q0-7.22 3.19-12.72t8.73-8.44q5.55-2.94 12.44-2.94 6.88 0 12.43 2.94 5.54 2.94 8.73 8.44 3.2 5.5 3.2 12.72 0 7.23-3.24 12.73-3.23 5.5-8.82 8.44-5.58 2.94-12.47 2.94m0-12.43q4.11 0 7.01-3.02 2.9-3.03 2.9-8.66 0-5.62-2.81-8.65-2.82-3.02-6.93-3.02-4.2 0-6.98 2.98-2.77 2.98-2.77 8.69 0 5.63 2.73 8.66 2.73 3.02 6.85 3.02m91.98-35.62q8.73 0 13.9 5.3 5.17 5.29 5.17 14.7v27.38h-14.28v-25.45q0-4.54-2.4-7.02-2.39-2.47-6.59-2.47t-6.6 2.47q-2.39 2.48-2.39 7.02v25.45h-14.28v-25.45q0-4.54-2.39-7.02-2.4-2.47-6.6-2.47t-6.59 2.47q-2.4 2.48-2.4 7.02v25.45h-14.36v-46.87h14.36v5.88q2.19-2.94 5.72-4.66 3.52-1.73 7.98-1.73 5.29 0 9.45 2.27 4.15 2.27 6.51 6.47 2.43-3.86 6.63-6.3t9.16-2.44m43.51 7.14q2.1-3.27 5.8-5.29 3.69-2.01 8.65-2.01 5.79 0 10.5 2.94 4.7 2.94 7.43 8.4t2.73 12.68-2.73 12.73q-2.73 5.5-7.43 8.48-4.71 2.98-10.5 2.98-4.87 0-8.61-2.01-3.74-2.02-5.84-5.21v28.89h-14.36v-69.21h14.36zm20.5 16.72q0-5.38-2.99-8.44-2.98-3.07-7.35-3.07-4.28 0-7.26 3.11t-2.98 8.48q0 5.38 2.98 8.49t7.26 3.11q4.29 0 7.31-3.15 3.03-3.15 3.03-8.53m36.54-15.54q2.52-3.86 6.3-6.09t8.4-2.23v15.21h-3.95q-5.38 0-8.07 2.31-2.68 2.31-2.68 8.1v21.76h-14.37v-46.87h14.37zm18.73 15.54q0-7.22 2.73-12.68t7.43-8.4q4.71-2.94 10.5-2.94 4.96 0 8.7 2.01 3.73 2.02 5.75 5.29v-6.63h14.36v46.87h-14.36v-6.64q-2.1 3.28-5.84 5.3-3.74 2.01-8.69 2.01-5.71 0-10.42-2.98-4.7-2.98-7.43-8.48-2.73-5.51-2.73-12.73m35.11.08q0-5.37-2.98-8.48t-7.27-3.11q-4.28 0-7.26 3.07-2.99 3.06-2.99 8.44t2.99 8.53q2.98 3.15 7.26 3.15 4.29 0 7.27-3.11t2.98-8.49m86.77-.75q0 2.01-.25 4.2h-32.51q.34 4.37 2.82 6.68 2.47 2.31 6.09 2.31 5.37 0 7.47-4.54h15.29q-1.18 4.62-4.24 8.32-3.07 3.69-7.69 5.79t-10.33 2.1q-6.89 0-12.26-2.94-5.38-2.94-8.4-8.4-3.03-5.46-3.03-12.77 0-7.3 2.98-12.76 2.99-5.46 8.36-8.4 5.38-2.94 12.35-2.94 6.8 0 12.1 2.85 5.29 2.86 8.27 8.15t2.98 12.35m-32.67-3.78h17.97q0-3.7-2.52-5.88-2.52-2.19-6.3-2.19-3.61 0-6.09 2.1t-3.06 5.97m68.79-19.41q8.23 0 13.15 5.34 4.91 5.33 4.91 14.66v27.38h-14.28v-25.45q0-4.71-2.43-7.31-2.44-2.6-6.56-2.6-4.11 0-6.55 2.6-2.43 2.6-2.43 7.31v25.45h-14.37v-46.87h14.37v6.21q2.18-3.1 5.88-4.91 3.69-1.81 8.31-1.81m95.76-11.59h16.89v58.97h-14.37v-35.36l-13.19 35.36h-11.59l-13.27-35.45v35.45h-14.36v-58.97h16.96l16.55 40.83zm86.61 69.05h-17.39l-7.56-10.16q-3.36.67-6.55.67-8.32 0-15.25-3.87-6.93-3.86-11-10.79-4.08-6.93-4.08-15.58t4.08-15.54q4.07-6.89 11-10.75 6.93-3.87 15.25-3.87 8.31 0 15.24 3.87 6.93 3.86 10.92 10.75t3.99 15.54q0 7.56-3.06 13.82-3.07 6.25-8.53 10.37zm-47.13-39.73q0 7.81 4.24 12.47 4.25 4.66 11.39 4.66 7.05 0 11.29-4.7 4.25-4.7 4.25-12.43 0-7.81-4.25-12.48-4.24-4.66-11.29-4.66-7.14 0-11.39 4.62-4.24 4.62-4.24 12.52m103.83-29.32h16.88v58.97h-14.36v-35.36l-13.19 35.36h-11.59l-13.28-35.45v35.45h-14.36v-58.97h16.97l16.55 40.83z"/></svg>